<?xml version="1.0" encoding="UTF-8"?><svg id="Layer_2" xmlns="http://www.w3.org/2000/svg" width="66.2" height="66.2" viewBox="0 0 66.2 66.2"><g id="Layer_2-2"><rect width="66.2" height="66.2" fill="#a4d4ff" stroke-width="0"/><path d="M1.93,57.84c0,2.34,1.93,4.38,4.38,4.38h53.57c2.34,0,4.38-1.93,4.38-4.38V16.5H1.93v41.35Z" fill="#3a85e6" stroke-width="0"/><path d="M59.88,3.97H6.31c-2.34,0-4.38,1.93-4.38,4.38v6.21h62.33v-6.21c0-2.44-1.93-4.38-4.38-4.38ZM8.96,11.51c-.92,0-1.63-.71-1.63-1.63s.71-1.63,1.63-1.63,1.63.71,1.63,1.63c0,.92-.71,1.63-1.63,1.63ZM15.58,11.51c-.92,0-1.63-.71-1.63-1.63s.71-1.63,1.63-1.63,1.63.71,1.63,1.63-.71,1.63-1.63,1.63ZM22.2,11.51c-.92,0-1.63-.71-1.63-1.63s.71-1.63,1.63-1.63,1.63.71,1.63,1.63c-.1.92-.81,1.63-1.63,1.63Z" fill="#3a85e6" stroke-width="0"/><path d="M16.89,33.1v20.47c0,.41.2.71.41,1.02.31.31.61.41,1.02.41h30.14c.41,0,.71-.2,1.02-.41.31-.31.41-.61.41-1.02v-20.47H16.89ZM42.56,39.82l-9.88,9.88c-.41.41-1.02.41-1.43,0l-7.13-7.13c-.41-.41-.41-1.02,0-1.43s1.02-.41,1.43,0l6.42,6.42,9.17-9.17c.41-.41,1.02-.41,1.43,0s.41,1.02,0,1.43Z" fill="#226dbf" stroke-width="0"/><path d="M25.24,26.27c-.2-.2-.31-.41-.31-.61v-4.68c0-.31.1-.51.31-.61.2-.2.41-.31.61-.31s.51.1.61.31c.2.2.31.41.31.61v4.68c0,.31-.1.51-.31.61-.2.2-.41.31-.61.31-.2,0-.41-.2-.61-.31Z" fill="#226dbf" stroke-width="0"/><path d="M49.89,31.06H16.89v-5.4c0-.41.2-.71.41-1.02.31-.31.61-.41,1.02-.41h4.68v1.32c0,.81.31,1.53.81,2.04s1.32.92,2.04.92c.81,0,1.53-.31,2.04-.92.51-.51.92-1.22.92-2.04v-1.32h9.06v1.32c0,.81.31,1.53.92,2.04.51.51,1.22.92,2.04.92s1.53-.31,2.04-.92c.51-.51.92-1.22.92-2.04v-1.32h4.68c.41,0,.71.2,1.02.41.31.31.41.61.41,1.02v5.4h0Z" fill="#226dbf" stroke-width="0"/><path d="M40.21,26.27c-.2-.2-.31-.41-.31-.61v-4.68c0-.31.1-.51.31-.61s.41-.31.61-.31.51.1.61.31c.2.2.31.41.31.61v4.68c0,.31-.1.51-.31.61-.2.2-.41.31-.61.31-.2,0-.41-.1-.61-.31Z" fill="#226dbf" stroke-width="0"/><path d="M16.6,33.1v20.47c0,.41.2.71.41,1.02.31.31.61.41,1.02.41h30.14c.41,0,.71-.2,1.02-.41.31-.31.41-.61.41-1.02v-20.47H16.6ZM42.26,39.82l-9.78,9.88c-.41.41-1.02.41-1.43,0l-7.13-7.13c-.41-.41-.41-1.02,0-1.43s1.02-.41,1.43,0l6.42,6.42,9.17-9.17c.41-.41,1.02-.41,1.43,0s.31,1.02-.1,1.43Z" fill="#fff" stroke-width="0"/><path d="M24.95,26.27c-.2-.2-.31-.41-.31-.61v-4.68c0-.31.1-.51.31-.61.2-.2.41-.31.61-.31s.51.1.61.31c.2.2.31.41.31.61v4.68c0,.31-.1.51-.31.61-.2.2-.41.31-.61.31-.2,0-.41-.1-.61-.31Z" fill="#fff" stroke-width="0"/><path d="M49.6,31.06H16.6v-5.4c0-.41.2-.71.41-1.02.31-.31.61-.41,1.02-.41h4.68v1.32c0,.81.31,1.53.81,2.04s1.32.92,2.04.92c.81,0,1.53-.31,2.04-.92.51-.51.92-1.22.92-2.04v-1.32h9.06v1.32c0,.81.31,1.53.92,2.04.51.51,1.22.92,2.04.92s1.53-.31,2.04-.92c.51-.51.92-1.22.92-2.04v-1.32h4.68c.41,0,.71.2,1.02.41.31.31.41.61.41,1.02v5.4h0Z" fill="#fff" stroke-width="0"/><path d="M39.92,26.27c-.2-.2-.31-.41-.31-.61v-4.68c0-.31.1-.51.31-.61.2-.2.41-.31.61-.31s.51.1.61.31c.2.2.31.41.31.61v4.68c0,.31-.1.51-.31.61-.2.2-.41.31-.61.31-.2,0-.41-.1-.61-.31Z" fill="#fff" stroke-width="0"/></g></svg>