<?xml version="1.0" encoding="UTF-8"?><svg id="Layer_2" xmlns="http://www.w3.org/2000/svg" width="65" height="65" viewBox="0 0 65 65"><g id="Layer_2-2"><rect width="65" height="65" fill="none" stroke-width="0"/><path d="M1.91,56.84c0,2.34,1.92,4.26,4.26,4.26h52.65c2.34,0,4.26-1.92,4.26-4.26V16.24H1.91v40.6Z" fill="#3a85e6" stroke-width="0"/><path d="M58.82,3.9H6.18c-2.34,0-4.26,1.92-4.26,4.26v6.11h61.17v-6.11c0-2.34-1.92-4.26-4.26-4.26ZM8.81,11.26c-.88,0-1.58-.71-1.58-1.58s.71-1.58,1.58-1.58,1.58.71,1.58,1.58-.71,1.58-1.58,1.58ZM15.29,11.26c-.88,0-1.58-.71-1.58-1.58s.71-1.58,1.58-1.58,1.58.71,1.58,1.58-.71,1.58-1.58,1.58ZM21.76,11.26c-.88,0-1.58-.71-1.58-1.58s.71-1.58,1.58-1.58,1.58.71,1.58,1.58-.71,1.58-1.58,1.58Z" fill="#3a85e6" stroke-width="0"/><path d="M17.38,32.49v20.14c0,.38.16.74.42,1,.26.26.61.42,1,.42h0s29.62,0,29.62,0c.38,0,.74-.16,1-.41.26-.26.41-.61.41-1v-20.14H17.38ZM42.63,39.13l-9.65,9.65c-.38.38-1.01.38-1.4,0l-7-6.99c-.38-.38-.38-1.01,0-1.4.38-.38,1.01-.38,1.4,0l6.3,6.29,8.96-8.95c.38-.38,1.01-.38,1.39,0s.38,1.01,0,1.4Z" fill="#2673c6" stroke-width="0"/><path d="M25.6,25.79c-.16-.16-.27-.4-.27-.65v-4.6c0-.26.1-.49.27-.65.17-.16.4-.27.65-.27s.48.1.65.27c.16.16.27.4.27.65v4.6c0,.26-.1.49-.27.65s-.4.27-.65.27-.48-.1-.65-.27Z" fill="#2673c6" stroke-width="0"/><path d="M49.82,30.51H17.38v-5.28c0-.38.16-.74.42-1s.61-.42,1-.42h4.57v1.32c0,.8.32,1.52.84,2.05.53.53,1.25.85,2.05.85s1.52-.32,2.05-.85c.52-.53.85-1.24.85-2.05v-1.32h8.91v1.32c0,.8.32,1.52.85,2.05s1.24.85,2.05.85,1.52-.32,2.04-.85c.53-.53.85-1.24.85-2.05v-1.32h4.57c.38,0,.74.16,1,.42s.41.61.41,1v5.28h0Z" fill="#2673c6" stroke-width="0"/><path d="M40.3,25.8c-.16-.16-.27-.4-.27-.65v-4.6c0-.26.1-.49.27-.65s.4-.27.65-.27.48.1.65.27c.17.16.27.4.27.65v4.6c0,.26-.1.49-.27.65-.16.17-.4.27-.65.27s-.49-.1-.65-.27Z" fill="#2673c6" stroke-width="0"/><path d="M16.87,32.48v20.14c0,.38.16.74.42,1,.26.26.61.42,1,.42h0s29.62,0,29.62,0c.38,0,.74-.16,1-.41.26-.26.41-.61.41-1v-20.14H16.87ZM42.12,39.12l-9.65,9.65c-.38.38-1.01.38-1.4,0l-7-6.99c-.38-.38-.38-1.01,0-1.4.38-.38,1.01-.38,1.4,0l6.3,6.29,8.96-8.95c.38-.38,1.01-.38,1.39,0s.38,1.01,0,1.4Z" fill="#fff" stroke-width="0"/><path d="M25.09,25.78c-.16-.16-.27-.4-.27-.65v-4.6c0-.26.1-.49.27-.65.17-.16.4-.27.65-.27s.48.1.65.27c.16.16.27.4.27.65v4.6c0,.26-.1.49-.27.65s-.4.27-.65.27-.48-.1-.65-.27Z" fill="#fff" stroke-width="0"/><path d="M49.32,30.5H16.87v-5.28c0-.38.16-.74.42-1s.61-.42,1-.42h4.57v1.32c0,.8.32,1.52.84,2.05.53.53,1.25.85,2.05.85s1.52-.32,2.05-.85c.52-.53.85-1.24.85-2.05v-1.32h8.91v1.32c0,.8.32,1.52.85,2.05s1.24.85,2.05.85,1.52-.32,2.04-.85c.53-.53.85-1.24.85-2.05v-1.32h4.57c.38,0,.74.16,1,.42s.41.61.41,1v5.28h0Z" fill="#fff" stroke-width="0"/><path d="M39.79,25.79c-.16-.16-.27-.4-.27-.65v-4.6c0-.26.1-.49.27-.65s.4-.27.65-.27.48.1.65.27c.17.16.27.4.27.65v4.6c0,.26-.1.49-.27.65-.16.17-.4.27-.65.27s-.49-.1-.65-.27Z" fill="#fff" stroke-width="0"/></g></svg>