<?xml version="1.0" standalone="no"?>
<!DOCTYPE svg PUBLIC "-//W3C//DTD SVG 20010904//EN"
 "http://www.w3.org/TR/2001/REC-SVG-20010904/DTD/svg10.dtd">
<svg version="1.0" xmlns="http://www.w3.org/2000/svg"
 width="180.000000pt" height="180.000000pt" viewBox="0 0 180.000000 180.000000"
 preserveAspectRatio="xMidYMid meet">
<metadata>
Created by potrace 1.14, written by Peter Selinger 2001-2017
</metadata>
<g transform="translate(0.000000,180.000000) scale(0.100000,-0.100000)"
fill="#000000" stroke="none">
<path d="M0 900 l0 -900 900 0 900 0 0 900 0 900 -900 0 -900 0 0 -900z m1400
228 c0 -266 -2 -309 -14 -293 -12 19 -355 566 -370 593 -6 9 35 12 188 12
l196 0 0 -312z m-674 -215 c174 -280 324 -518 332 -530 l14 -23 -336 0 -336 0
0 530 c0 292 2 530 4 530 3 0 147 -228 322 -507z"/>
</g>
</svg>
