<svg xmlns="http://www.w3.org/2000/svg" xml:space="preserve" width="2048" height="2048" style="shape-rendering:geometricPrecision;text-rendering:geometricPrecision;image-rendering:optimizeQuality;fill-rule:evenodd;clip-rule:evenodd"><defs><style>.fil1{fill:none}</style></defs><path style="fill:#424242" d="M0 0h2048v2048H0z"/><g id="Layer_x0020_1"><path class="fil1" d="M0 0h2048v2048H0z"/><path class="fil1" d="M255.999 255.999h1536v1536h-1536z"/><g id="_254000808"><path id="_254000544" class="fil1" d="M255.999 255.999h1536v1536h-1536z"/><path id="_254000736" d="M1426.31 475.592V329.223c0-40.403-32.917-73.241-73.241-73.241-40.298 0-73.207 32.838-73.207 73.241v146.369c0 40.403 32.909 72.874 73.207 72.874 40.324 0 73.241-32.47 73.241-72.874zm-713.19 72.874c30.341 0 55.04-24.233 55.04-54.943V311.028c0-30.35-24.699-55.046-55.04-55.046h-36.389c-30.35 0-55.047 24.338-55.047 55.047v182.496c0 30.35 24.698 54.942 55.047 54.942h36.389zm-411.046-146.01c-25.32 0-46.073 21.017-46.073 47.09v1294.91c0 26.072 20.754 47.561 46.073 47.561h1443.85c25.32 0 46.082-21.489 46.082-47.562V449.545c0-26.072-20.762-47.089-46.082-47.089h-246.377v136.755c0 45.715-49.368 82.462-110.086 82.462h-72.769c-61.06 0-110.068-36.747-110.068-82.462V402.456H840.931v136.755c0 45.715-48.921 82.462-109.622 82.462h-72.873c-61.051 0-109.982-36.747-109.982-82.462V402.456H302.077zm1197.47 511.702h219.217v219.683h-219.217V914.158zm0 292.451h219.217V1426.3h-219.217v-219.69zm0 292.924h219.217v191.724c0 15.364-13.891 27.52-31.437 27.52h-187.78v-219.243zm-292.923-585.375h219.69v219.683h-219.69V914.158zm0 292.451h219.69V1426.3h-219.69v-219.69zm0 292.924h219.69v219.243h-219.69v-219.243zM914.144 914.158h219.708v219.683H914.144V914.158zm0 585.375h219.708v219.243H914.144v-219.243zm-292.46-585.375h219.243v219.683H621.684V914.158zm0 292.451h219.243V1426.3H621.684v-219.69zm0 292.924h219.243v219.243H621.684v-219.243zm-73.233 219.243H360.67c-17.545 0-31.436-12.156-31.436-27.52v-191.724H548.45v219.243zm0-292.477H329.235v-219.69H548.45v219.69zm0-292.459H329.235V914.157H548.45v219.683zm594.585 63.68c11.271-3.138 24.006-.377 32.918 8.527 13.155 13.042 13.155 34.417 0 47.634l-140.445 140.47c-6.572 6.565-15.205 9.904-23.935 9.904-8.615 0-17.134-3.339-23.812-9.903l-86.545-86.555c-31.315-31.375 16.31-79.087 47.624-47.73l62.733 62.743 131.462-125.091z" style="fill:#fff"/></g></g></svg>