<svg width="512" height="512" viewBox="0 0 512 512" fill="none" xmlns="http://www.w3.org/2000/svg">
  <rect width="512" height="512" rx="64" fill="#4A5568"/>
  
  <path d="M100 120C100 108.954 108.954 100 120 100H392C403.046 100 412 108.954 412 120V412C412 423.046 403.046 432 392 432H120C108.954 432 100 423.046 100 412V120Z" fill="white"/>
  
  <rect x="160" y="80" width="40" height="60" rx="20" fill="#4A5568"/>
  <rect x="312" y="80" width="40" height="60" rx="20" fill="#4A5568"/>
  
  <g fill="#4A5568">
    <rect x="136" y="180" width="44" height="44" rx="4"/>
    <rect x="192" y="180" width="44" height="44" rx="4"/>
    <rect x="248" y="180" width="44" height="44" rx="4"/>
    <rect x="304" y="180" width="44" height="44" rx="4"/>
    <rect x="360" y="180" width="44" height="44" rx="4"/>
    <rect x="136" y="236" width="44" height="44" rx="4"/>
    <rect x="192" y="236" width="44" height="44" rx="4"/>
    <rect x="248" y="236" width="44" height="44" rx="4"/>
    <rect x="304" y="236" width="44" height="44" rx="4"/>
    <rect x="360" y="236" width="44" height="44" rx="4"/>
    <rect x="136" y="292" width="44" height="44" rx="4"/>
    <rect x="192" y="292" width="44" height="44" rx="4"/>
    <rect x="304" y="292" width="44" height="44" rx="4"/>
    <rect x="360" y="292" width="44" height="44" rx="4"/>
    <rect x="136" y="348" width="44" height="44" rx="4"/>
    <rect x="192" y="348" width="44" height="44" rx="4"/>
    <rect x="248" y="348" width="44" height="44" rx="4"/>
    <rect x="304" y="348" width="44" height="44" rx="4"/>
    <rect x="360" y="348" width="44" height="44" rx="4"/>
  </g>
  
  <path d="M228 305L248 325L288 285" stroke="#4A5568" stroke-width="12" stroke-linecap="round" stroke-linejoin="round"/>
</svg>
